<svg width="25" height="25" viewBox="0 0 25 25" fill="none" xmlns="http://www.w3.org/2000/svg">
<path d="M12.3447 8.64974C12.5347 8.65005 12.7245 8.72035 12.8743 8.87059C13.1638 9.16106 13.1631 9.64106 12.8726 9.93059L10.8394 11.9573L12.8661 13.9906C13.1556 14.2811 13.1549 14.761 12.8644 15.0506C12.5739 15.3401 12.0939 15.3393 11.8044 15.0489L9.2485 12.4848C8.95897 12.1943 8.95974 11.7143 9.2502 11.4248L11.8143 8.86889C11.9545 8.71912 12.1547 8.64944 12.3447 8.64974Z" fill="#D64545"/>
<path d="M9.85061 11.2058L20.0206 11.2221C20.4306 11.2227 20.77 11.5633 20.7694 11.9733C20.7687 12.3833 20.4282 12.7227 20.0182 12.7221L9.8482 12.7057C9.4382 12.7051 9.09875 12.3645 9.09941 11.9545C9.10006 11.5445 9.44061 11.2051 9.85061 11.2058Z" fill="#D64545"/>
<path d="M12.0333 3.26921C12.4433 3.26986 12.7828 3.61041 12.7821 4.02041C12.7815 4.43041 12.4409 4.76986 12.0309 4.7692C7.76092 4.76235 4.77614 7.73757 4.7693 12.0076C4.76245 16.2776 7.73766 19.2623 12.0077 19.2692C12.4177 19.2698 12.7571 19.6104 12.7565 20.0204C12.7558 20.4304 12.4152 20.7698 12.0053 20.7692C6.85526 20.7609 3.26104 17.1552 3.2693 12.0052C3.27756 6.85517 6.88333 3.26094 12.0333 3.26921Z" fill="#D64545"/>
</svg>
